<svg width="27" height="23" xmlns="http://www.w3.org/2000/svg">

 <g>
  <title>background</title>
  <rect fill="none" id="canvas_background" height="602" width="802" y="-1" x="-1"/>
 </g>
 <g>
  <title>Layer 1</title>
  <path id="svg_1" d="m7.41,7.5485l-2.829,2.829l7.783,7.783l13.932,-13.932l-2.828,-2.829l-11.104,11.102l-4.954,-4.953z" fill="#6a6a6a"/>
  <path id="svg_2" d="m21,20c0,0.542 -0.458,1 -1,1l-17,0c-0.542,0 -1,-0.458 -1,-1l0,-17c0,-0.542 0.458,-1 1,-1l16.908,0l1.585,-1.585a2.96,2.96 0 0 0 -1.493,-0.415l-17,0c-1.65,0 -3,1.35 -3,3l0,17c0,1.65 1.35,3 3,3l17,0c1.65,0 3,-1.35 3,-3l0,-9.829l-2,2l0,7.829z" fill="#6a6a6a"/>
 </g>
</svg>