<svg width="21" height="22" xmlns="http://www.w3.org/2000/svg">

 <g>
  <title>background</title>
  <rect fill="none" id="canvas_background" height="602" width="802" y="-1" x="-1"/>
 </g>
 <g>
  <title>Layer 1</title>
  <path fill="#82b3d3" id="svg_1" d="m19.251,2.025l-2.845,0l0,-1.377c0,-0.381 -0.294,-0.689 -0.656,-0.689c-0.363,0 -0.656,0.308 -0.656,0.689l0,1.377l-3.938,0l0,-1.377c0,-0.381 -0.294,-0.689 -0.655,-0.689c-0.363,0 -0.657,0.308 -0.657,0.689l0,1.377l-3.938,0l0,-1.377c0,-0.381 -0.294,-0.689 -0.656,-0.689c-0.363,0 -0.657,0.308 -0.657,0.689l0,1.377l-2.843,0c-0.966,0 -1.75,0.822 -1.75,1.837l0,16.302c0,1.015 0.784,1.836 1.75,1.836l17.501,0c0.966,0 1.749,-0.821 1.749,-1.836l0,-16.302c0,-1.015 -0.783,-1.837 -1.749,-1.837zm0.437,18.139a0.448,0.448 0 0 1 -0.437,0.459l-17.501,0a0.45,0.45 0 0 1 -0.438,-0.459l0,-16.302a0.45,0.45 0 0 1 0.438,-0.459l2.844,0l0,1.378c0,0.381 0.294,0.689 0.657,0.689c0.362,0 0.656,-0.308 0.656,-0.689l0,-1.378l3.938,0l0,1.378c0,0.381 0.294,0.689 0.657,0.689c0.361,0 0.655,-0.308 0.655,-0.689l0,-1.378l3.938,0l0,1.378c0,0.381 0.293,0.689 0.656,0.689c0.362,0 0.656,-0.308 0.656,-0.689l0,-1.378l2.845,0c0.241,0 0.437,0.206 0.437,0.459l0,16.302l-0.001,0z"/>
  <path fill="#82b3d3" id="svg_2" d="m4.5315,8.4125l2.625,0l0,2.066l-2.625,0l0,-2.066zm0,3.443l2.625,0l0,2.067l-2.625,0l0,-2.067zm0,3.444l2.625,0l0,2.066l-2.625,0l0,-2.066zm4.594,0l2.625,0l0,2.066l-2.625,0l0,-2.066zm0,-3.444l2.625,0l0,2.067l-2.625,0l0,-2.067zm0,-3.443l2.625,0l0,2.066l-2.625,0l0,-2.066zm4.593,6.887l2.625,0l0,2.066l-2.625,0l0,-2.066zm0,-3.444l2.625,0l0,2.067l-2.625,0l0,-2.067zm0,-3.443l2.625,0l0,2.066l-2.625,0l0,-2.066z"/>
 </g>
</svg>